<svg width="68" height="19" viewBox="0 0 68 19" fill="none" xmlns="http://www.w3.org/2000/svg">
<path d="M8 15.2H4.775V11.175H0.8V8.075H4.775V4.05H8V8.075H11.975V11.175H8V15.2ZM21.3436 18.25C15.8686 18.25 13.3936 16.025 13.3936 12.325V11.925H17.3686V12.325C17.3686 14.025 17.8436 14.65 21.1686 14.65C24.3186 14.65 25.2936 14.15 25.2936 12.7C25.2936 11.45 24.4936 10.925 22.9186 10.925H18.0936V7.85H22.5686C24.0186 7.85 24.6686 7.325 24.6686 6.275C24.6686 5.1 23.9686 4.6 21.1186 4.6C18.1186 4.6 17.3686 5.225 17.3686 6.925V7.05H13.3936V6.925C13.3936 3.4 15.9936 1 21.4436 1C25.9186 1 28.3936 2.525 28.3936 5.475C28.3936 7.4 27.2436 8.7 25.0686 8.975V9.25C27.5186 9.6 29.1186 10.85 29.1186 13.3C29.1186 16.55 26.2186 18.25 21.3436 18.25ZM38.541 18.25C33.141 18.25 30.166 14.85 30.166 9.625C30.166 4.425 33.141 1 38.541 1C43.916 1 46.916 4.425 46.916 9.625C46.916 14.85 43.916 18.25 38.541 18.25ZM38.541 14.6C41.716 14.6 42.891 13.225 42.891 9.625C42.891 6.025 41.716 4.65 38.541 4.65C35.341 4.65 34.191 6.025 34.191 9.625C34.191 13.225 35.341 14.6 38.541 14.6ZM52.2848 9.325C49.5098 9.325 47.8848 7.65 47.8848 5.15C47.8848 2.65 49.5098 0.949999 52.2848 0.949999C55.0848 0.949999 56.7098 2.65 56.7098 5.15C56.7098 7.65 55.0848 9.325 52.2848 9.325ZM52.3848 18H48.7598L62.9848 1.25H66.6098L52.3848 18ZM52.2848 6.875C53.6098 6.875 54.0348 6.4 54.0348 5.15C54.0348 3.9 53.6098 3.4 52.2848 3.4C50.9848 3.4 50.5598 3.9 50.5598 5.15C50.5598 6.4 50.9848 6.875 52.2848 6.875ZM63.0598 18.275C60.2848 18.275 58.6348 16.6 58.6348 14.1C58.6348 11.6 60.2848 9.925 63.0598 9.925C65.8348 9.925 67.4848 11.6 67.4848 14.1C67.4848 16.6 65.8348 18.275 63.0598 18.275ZM63.0598 15.825C64.3598 15.825 64.8098 15.35 64.8098 14.1C64.8098 12.85 64.3598 12.35 63.0598 12.35C61.7598 12.35 61.3098 12.85 61.3098 14.1C61.3098 15.35 61.7598 15.825 63.0598 15.825Z" fill="#3F0865"/>
</svg>
