<svg width="239" height="37" viewBox="0 0 239 37" fill="none" xmlns="http://www.w3.org/2000/svg">
<path d="M11.8 26.52H6.64V20.08H0.28V15.12H6.64V8.68H11.8V15.12H18.16V20.08H11.8V26.52Z" fill="#AA2EFF"/>
<path d="M39.3216 31.4C30.5616 31.4 26.6016 27.84 26.6016 21.92V21.28H32.9616V21.92C32.9616 24.64 33.7216 25.64 39.0416 25.64C44.0816 25.64 45.6416 24.84 45.6416 22.52C45.6416 20.52 44.3616 19.68 41.8416 19.68H34.1216V14.76H41.2816C43.6016 14.76 44.6416 13.92 44.6416 12.24C44.6416 10.36 43.5216 9.56 38.9616 9.56C34.1616 9.56 32.9616 10.56 32.9616 13.28V13.48H26.6016V13.28C26.6016 7.64 30.7616 3.8 39.4816 3.8C46.6416 3.8 50.6016 6.24 50.6016 10.96C50.6016 14.04 48.7616 16.12 45.2816 16.56V17C49.2016 17.56 51.7616 19.56 51.7616 23.48C51.7616 28.68 47.1216 31.4 39.3216 31.4ZM66.8375 31.4C58.1975 31.4 53.4375 25.96 53.4375 17.6C53.4375 9.28 58.1975 3.8 66.8375 3.8C75.4375 3.8 80.2375 9.28 80.2375 17.6C80.2375 25.96 75.4375 31.4 66.8375 31.4ZM66.8375 25.56C71.9175 25.56 73.7975 23.36 73.7975 17.6C73.7975 11.84 71.9175 9.64 66.8375 9.64C61.7175 9.64 59.8775 11.84 59.8775 17.6C59.8775 23.36 61.7175 25.56 66.8375 25.56ZM95.5875 31.4C86.9475 31.4 82.1875 25.96 82.1875 17.6C82.1875 9.28 86.9475 3.8 95.5875 3.8C104.188 3.8 108.988 9.28 108.988 17.6C108.988 25.96 104.188 31.4 95.5875 31.4ZM95.5875 25.56C100.668 25.56 102.548 23.36 102.548 17.6C102.548 11.84 100.668 9.64 95.5875 9.64C90.4675 9.64 88.6275 11.84 88.6275 17.6C88.6275 23.36 90.4675 25.56 95.5875 25.56ZM113.498 36.64H111.378V32.92H113.338C114.138 32.92 114.538 32.72 114.538 31.68V31H111.138V24H118.858V31.64C118.858 35 116.898 36.64 113.498 36.64ZM134.455 31.4C125.815 31.4 121.055 25.96 121.055 17.6C121.055 9.28 125.815 3.8 134.455 3.8C143.055 3.8 147.855 9.28 147.855 17.6C147.855 25.96 143.055 31.4 134.455 31.4ZM134.455 25.56C139.535 25.56 141.415 23.36 141.415 17.6C141.415 11.84 139.535 9.64 134.455 9.64C129.335 9.64 127.495 11.84 127.495 17.6C127.495 23.36 129.335 25.56 134.455 25.56ZM163.205 31.4C154.565 31.4 149.805 25.96 149.805 17.6C149.805 9.28 154.565 3.8 163.205 3.8C171.805 3.8 176.605 9.28 176.605 17.6C176.605 25.96 171.805 31.4 163.205 31.4ZM163.205 25.56C168.285 25.56 170.165 23.36 170.165 17.6C170.165 11.84 168.285 9.64 163.205 9.64C158.085 9.64 156.245 11.84 156.245 17.6C156.245 23.36 158.085 25.56 163.205 25.56ZM191.955 31.4C183.315 31.4 178.555 25.96 178.555 17.6C178.555 9.28 183.315 3.8 191.955 3.8C200.555 3.8 205.355 9.28 205.355 17.6C205.355 25.96 200.555 31.4 191.955 31.4ZM191.955 25.56C197.035 25.56 198.915 23.36 198.915 17.6C198.915 11.84 197.035 9.64 191.955 9.64C186.835 9.64 184.995 11.84 184.995 17.6C184.995 23.36 186.835 25.56 191.955 25.56ZM229.037 35H223.437V31.24C217.077 30.56 213.557 27.44 213.557 21.96V21.72H219.557V22.44C219.557 24.92 220.797 25.92 226.237 25.92C231.037 25.92 232.157 25.2 232.157 23.4C232.157 21.76 231.237 21.16 228.477 20.68L220.957 19.6C216.157 18.84 213.317 16.44 213.317 12.08C213.317 8.4 216.077 4.52 223.437 3.88V0.199998H229.037V4.04C234.917 5 237.677 8.44 237.677 13.24V13.48H231.637V12.92C231.637 10.36 230.317 9.28 224.997 9.28C220.677 9.28 219.357 10.12 219.357 11.84C219.357 13.4 220.237 13.96 222.477 14.36L229.997 15.56C235.997 16.52 238.157 19.44 238.157 23.12C238.157 26.96 235.517 30.48 229.037 31.24V35Z" fill="white"/>
</svg>
