<svg width="149" height="115" viewBox="0 0 149 115" fill="none" xmlns="http://www.w3.org/2000/svg">
<path d="M12.1137 24.35C5.00873 24.35 1.01873 21.55 1.01873 16.09V15.88H6.26873V16.51C6.26873 18.68 7.35373 19.555 12.1137 19.555C16.3137 19.555 17.2937 18.925 17.2937 17.35C17.2937 15.915 16.4887 15.39 14.0737 14.97L7.49373 14.025C3.29373 13.36 0.808731 11.26 0.808731 7.445C0.808731 3.91 3.67873 0.2 11.5537 0.2C18.7637 0.2 22.1237 3.525 22.1237 8.46V8.67H16.8387V8.18C16.8387 5.94 15.6837 4.995 11.0287 4.995C7.24873 4.995 6.09373 5.73 6.09373 7.235C6.09373 8.6 6.86373 9.09 8.82373 9.44L15.4037 10.49C20.6537 11.33 22.5437 13.885 22.5437 17.105C22.5437 20.92 19.5687 24.35 12.1137 24.35ZM31.9267 24.35C26.9917 24.35 24.6467 21.305 24.6467 17.385V6.465H29.8967V15.635C29.8967 18.47 31.0867 19.66 34.4117 19.66C37.8417 19.66 39.0667 18.33 39.0667 15.355V6.465H44.3167V24H39.4167V18.645H39.1367C38.6817 21.585 36.5467 24.35 31.9267 24.35ZM52.2511 24H47.0011V6.465H51.8661V11.12H52.1811C52.6711 8.285 54.5261 6.115 58.0611 6.115C61.9811 6.115 63.5911 8.81 63.5911 12.24V15.145H58.3411V13.325C58.3411 11.4 57.5711 10.56 55.4361 10.56C53.0911 10.56 52.2511 11.645 52.2511 13.85V24ZM78.5473 24H72.0723L64.0923 6.465H69.9373L75.1873 18.89H75.5373L80.8223 6.465H86.5623L78.5473 24ZM97.2583 24.35C91.4133 24.35 87.4233 21.48 87.4233 15.25C87.4233 9.65 91.3783 6.115 97.1533 6.115C102.893 6.115 106.708 9.125 106.708 14.62C106.708 15.25 106.638 15.705 106.568 16.3H92.2883C92.4283 18.995 93.6883 20.15 97.0833 20.15C100.198 20.15 101.283 19.345 101.283 17.84V17.49H106.533V17.875C106.533 21.69 102.823 24.35 97.2583 24.35ZM97.0483 10.21C93.9333 10.21 92.6033 11.26 92.3583 13.535H101.668C101.528 11.225 100.128 10.21 97.0483 10.21ZM112.295 29.95H109.425V25.19H113.73C115.025 25.19 115.585 24.84 115.935 24.07L107.36 6.465H113.31L117.02 14.48L118.49 18.61H118.84L120.24 14.445L123.565 6.465H129.41L120.73 25.26C119.05 28.935 116.705 29.95 112.295 29.95ZM139.528 24.35C133.613 24.35 130.358 22.04 130.358 17.98V17.875H135.608V18.19C135.608 19.765 136.588 20.185 139.563 20.185C142.363 20.185 143.028 19.73 143.028 18.68C143.028 17.7 142.503 17.42 140.438 17.14L135.503 16.545C132.003 16.16 130.043 14.585 130.043 11.645C130.043 8.565 132.668 6.115 138.688 6.115C144.428 6.115 147.683 8.285 147.683 12.555V12.66H142.433V12.45C142.433 11.015 141.733 10.28 138.513 10.28C135.888 10.28 135.223 10.735 135.223 11.855C135.223 12.765 135.713 13.15 138.023 13.43L141.768 13.885C146.458 14.41 148.208 15.985 148.208 18.89C148.208 22.18 144.953 24.35 139.528 24.35ZM72.7638 67.35C66.0088 67.35 62.1588 65.215 62.1588 60.49C62.1588 57.025 64.3988 55.135 67.7938 54.75V54.365C64.6788 54.015 63.1038 51.95 63.1038 49.36C63.1038 45.09 66.4988 43.165 72.3088 43.165H76.5438V47.96H71.5738C69.3338 47.96 68.3538 48.485 68.3538 50.41C68.3538 52.265 69.5088 52.79 71.5388 52.79H78.3288V49.465H83.5088V52.79H87.1138V57.095H83.5088V58.565C83.5088 63.955 80.7088 67.35 72.7638 67.35ZM72.9388 62.555C77.3138 62.555 78.3288 61.855 78.3288 58.845V57.095H70.7338C68.7038 57.095 67.4788 57.76 67.4788 59.825C67.4788 61.82 68.6688 62.555 72.9388 62.555ZM35.371 114.935H28.546L24.906 110.315C17.731 109.895 13.356 105.24 13.356 98.275C13.356 90.96 18.186 86.2 25.956 86.2C33.901 86.2 38.696 90.96 38.696 98.275C38.696 103.98 35.791 108.145 30.716 109.685L35.371 114.935ZM25.956 105.31C31.101 105.31 33.096 103.49 33.096 98.275C33.096 93.06 31.101 91.24 25.956 91.24C20.811 91.24 18.921 93.06 18.921 98.275C18.921 103.49 20.811 105.31 25.956 105.31ZM48.2304 110.35C43.2954 110.35 40.9504 107.305 40.9504 103.385V92.465H46.2004V101.635C46.2004 104.47 47.3904 105.66 50.7154 105.66C54.1454 105.66 55.3705 104.33 55.3705 101.355V92.465H60.6204V110H55.7205V104.645H55.4404C54.9855 107.585 52.8504 110.35 48.2304 110.35ZM72.6148 110.35C66.7698 110.35 62.7798 107.48 62.7798 101.25C62.7798 95.65 66.7348 92.115 72.5098 92.115C78.2498 92.115 82.0648 95.125 82.0648 100.62C82.0648 101.25 81.9948 101.705 81.9248 102.3H67.6448C67.7848 104.995 69.0448 106.15 72.4398 106.15C75.5548 106.15 76.6398 105.345 76.6398 103.84V103.49H81.8898V103.875C81.8898 107.69 78.1798 110.35 72.6148 110.35ZM72.4048 96.21C69.2898 96.21 67.9598 97.26 67.7148 99.535H77.0248C76.8848 97.225 75.4848 96.21 72.4048 96.21ZM93.1461 110.35C87.2311 110.35 83.9761 108.04 83.9761 103.98V103.875H89.2261V104.19C89.2261 105.765 90.2061 106.185 93.1811 106.185C95.9811 106.185 96.6461 105.73 96.6461 104.68C96.6461 103.7 96.1211 103.42 94.0561 103.14L89.1211 102.545C85.6211 102.16 83.6611 100.585 83.6611 97.645C83.6611 94.565 86.2861 92.115 92.3061 92.115C98.0461 92.115 101.301 94.285 101.301 98.555V98.66H96.0511V98.45C96.0511 97.015 95.3511 96.28 92.1311 96.28C89.5061 96.28 88.8411 96.735 88.8411 97.855C88.8411 98.765 89.3311 99.15 91.6411 99.43L95.3861 99.885C100.076 100.41 101.826 101.985 101.826 104.89C101.826 108.18 98.5711 110.35 93.1461 110.35ZM116.299 110H111.959C107.864 110 105.379 108.075 105.379 103.665V96.805H102.614V92.465H105.379V89.07H110.629V92.465H116.299V96.805H110.629V103.07C110.629 104.82 111.294 105.275 113.149 105.275H116.299V110ZM127.121 110.35C121.206 110.35 117.951 108.04 117.951 103.98V103.875H123.201V104.19C123.201 105.765 124.181 106.185 127.156 106.185C129.956 106.185 130.621 105.73 130.621 104.68C130.621 103.7 130.096 103.42 128.031 103.14L123.096 102.545C119.596 102.16 117.636 100.585 117.636 97.645C117.636 94.565 120.261 92.115 126.281 92.115C132.021 92.115 135.276 94.285 135.276 98.555V98.66H130.026V98.45C130.026 97.015 129.326 96.28 126.106 96.28C123.481 96.28 122.816 96.735 122.816 97.855C122.816 98.765 123.306 99.15 125.616 99.43L129.361 99.885C134.051 100.41 135.801 101.985 135.801 104.89C135.801 108.18 132.546 110.35 127.121 110.35Z" fill="#D9D9D9"/>
</svg>
