<svg width="84" height="25" viewBox="0 0 84 25" fill="none" xmlns="http://www.w3.org/2000/svg">
<path d="M11.9255 24.35C4.29555 24.35 0.410547 20.5 0.410547 14.2V0.549999H5.66055V13.815C5.66055 17.805 7.16555 19.24 11.9255 19.24C16.7205 19.24 18.1905 17.805 18.1905 13.815V0.549999H23.4405V14.2C23.4405 20.5 19.5905 24.35 11.9255 24.35ZM34.9386 24.35C29.0236 24.35 25.7686 22.04 25.7686 17.98V17.875H31.0186V18.19C31.0186 19.765 31.9986 20.185 34.9736 20.185C37.7736 20.185 38.4386 19.73 38.4386 18.68C38.4386 17.7 37.9136 17.42 35.8486 17.14L30.9136 16.545C27.4136 16.16 25.4536 14.585 25.4536 11.645C25.4536 8.565 28.0786 6.115 34.0986 6.115C39.8386 6.115 43.0936 8.285 43.0936 12.555V12.66H37.8436V12.45C37.8436 11.015 37.1436 10.28 33.9236 10.28C31.2986 10.28 30.6336 10.735 30.6336 11.855C30.6336 12.765 31.1236 13.15 33.4336 13.43L37.1786 13.885C41.8686 14.41 43.6186 15.985 43.6186 18.89C43.6186 22.18 40.3636 24.35 34.9386 24.35ZM55.0469 24.35C49.2019 24.35 45.2119 21.48 45.2119 15.25C45.2119 9.65 49.1669 6.115 54.9419 6.115C60.6819 6.115 64.4969 9.125 64.4969 14.62C64.4969 15.25 64.4269 15.705 64.3569 16.3H50.0769C50.2169 18.995 51.4769 20.15 54.8719 20.15C57.9869 20.15 59.0719 19.345 59.0719 17.84V17.49H64.3219V17.875C64.3219 21.69 60.6119 24.35 55.0469 24.35ZM54.8369 10.21C51.7219 10.21 50.3919 11.26 50.1469 13.535H59.4569C59.3169 11.225 57.9169 10.21 54.8369 10.21ZM71.9732 24H66.7232V6.465H71.5882V11.12H71.9032C72.3932 8.285 74.2482 6.115 77.7832 6.115C81.7032 6.115 83.3132 8.81 83.3132 12.24V15.145H78.0632V13.325C78.0632 11.4 77.2932 10.56 75.1582 10.56C72.8132 10.56 71.9732 11.645 71.9732 13.85V24Z" fill="#1E1E1E"/>
</svg>
