<svg width="156" height="25" viewBox="0 0 156 25" fill="none" xmlns="http://www.w3.org/2000/svg">
<path d="M15.2414 24H0.506426V0.549999H14.5764C19.3714 0.549999 21.9614 2.58 21.9614 6.255C21.9614 9.16 20.4214 11.26 16.5014 11.54V11.855C20.8414 12.17 22.9414 14.34 22.9414 17.49C22.9414 21.48 20.4914 24 15.2414 24ZM5.75643 5.275V9.86H13.9814C15.9064 9.86 16.7114 9.195 16.7114 7.585C16.7114 5.975 15.8714 5.275 13.9114 5.275H5.75643ZM5.75643 14.2V19.275H14.6114C16.7464 19.275 17.6214 18.61 17.6214 16.72C17.6214 14.865 16.7464 14.2 14.6114 14.2H5.75643ZM32.124 24.35C27.189 24.35 24.844 21.305 24.844 17.385V6.465H30.094V15.635C30.094 18.47 31.284 19.66 34.609 19.66C38.039 19.66 39.264 18.33 39.264 15.355V6.465H44.514V24H39.614V18.645H39.334C38.879 21.585 36.744 24.35 32.124 24.35ZM56.0533 24.35C50.1383 24.35 46.8833 22.04 46.8833 17.98V17.875H52.1333V18.19C52.1333 19.765 53.1133 20.185 56.0883 20.185C58.8883 20.185 59.5533 19.73 59.5533 18.68C59.5533 17.7 59.0283 17.42 56.9633 17.14L52.0283 16.545C48.5283 16.16 46.5683 14.585 46.5683 11.645C46.5683 8.565 49.1933 6.115 55.2133 6.115C60.9533 6.115 64.2083 8.285 64.2083 12.555V12.66H58.9583V12.45C58.9583 11.015 58.2583 10.28 55.0383 10.28C52.4133 10.28 51.7483 10.735 51.7483 11.855C51.7483 12.765 52.2383 13.15 54.5483 13.43L58.2933 13.885C62.9833 14.41 64.7333 15.985 64.7333 18.89C64.7333 22.18 61.4783 24.35 56.0533 24.35ZM72.1017 4.68H66.8517V0.549999H72.1017V4.68ZM72.1017 24H66.8517V6.465H72.1017V24ZM80.0997 24H74.8497V6.465H79.7147V11.855H80.0297C80.4847 8.915 82.5847 6.115 87.1697 6.115C91.9647 6.115 94.2397 9.195 94.2397 13.08V24H88.9897V14.83C88.9897 12.03 87.8347 10.84 84.6147 10.84C81.2897 10.84 80.0997 12.17 80.0997 15.145V24ZM106.206 24.35C100.361 24.35 96.3706 21.48 96.3706 15.25C96.3706 9.65 100.326 6.115 106.101 6.115C111.841 6.115 115.656 9.125 115.656 14.62C115.656 15.25 115.586 15.705 115.516 16.3H101.236C101.376 18.995 102.636 20.15 106.031 20.15C109.146 20.15 110.231 19.345 110.231 17.84V17.49H115.481V17.875C115.481 21.69 111.771 24.35 106.206 24.35ZM105.996 10.21C102.881 10.21 101.551 11.26 101.306 13.535H110.616C110.476 11.225 109.076 10.21 105.996 10.21ZM126.737 24.35C120.822 24.35 117.567 22.04 117.567 17.98V17.875H122.817V18.19C122.817 19.765 123.797 20.185 126.772 20.185C129.572 20.185 130.237 19.73 130.237 18.68C130.237 17.7 129.712 17.42 127.647 17.14L122.712 16.545C119.212 16.16 117.252 14.585 117.252 11.645C117.252 8.565 119.877 6.115 125.897 6.115C131.637 6.115 134.892 8.285 134.892 12.555V12.66H129.642V12.45C129.642 11.015 128.942 10.28 125.722 10.28C123.097 10.28 122.432 10.735 122.432 11.855C122.432 12.765 122.922 13.15 125.232 13.43L128.977 13.885C133.667 14.41 135.417 15.985 135.417 18.89C135.417 22.18 132.162 24.35 126.737 24.35ZM146.39 24.35C140.475 24.35 137.22 22.04 137.22 17.98V17.875H142.47V18.19C142.47 19.765 143.45 20.185 146.425 20.185C149.225 20.185 149.89 19.73 149.89 18.68C149.89 17.7 149.365 17.42 147.3 17.14L142.365 16.545C138.865 16.16 136.905 14.585 136.905 11.645C136.905 8.565 139.53 6.115 145.55 6.115C151.29 6.115 154.545 8.285 154.545 12.555V12.66H149.295V12.45C149.295 11.015 148.595 10.28 145.375 10.28C142.75 10.28 142.085 10.735 142.085 11.855C142.085 12.765 142.575 13.15 144.885 13.43L148.63 13.885C153.32 14.41 155.07 15.985 155.07 18.89C155.07 22.18 151.815 24.35 146.39 24.35Z" fill="#D9D9D9"/>
</svg>
