<svg width="320" height="194" viewBox="0 0 320 194" fill="none" xmlns="http://www.w3.org/2000/svg">
<g style="mix-blend-mode:hard-light">
<mask id="mask0_286_463" style="mask-type:alpha" maskUnits="userSpaceOnUse" x="3" y="0" width="317" height="194">
<path d="M46.0385 83.644L3.30171 131.919V193.098H319.5V0L259.182 78.1474L219.15 49.2305L147.2 107.064L129.889 96.5491L107.168 116.624L46.0385 83.644Z" fill="#D9D9D9"/>
</mask>
<g mask="url(#mask0_286_463)">
<rect x="10.5429" y="85.6875" width="24.7407" height="114.652" fill="url(#paint0_linear_286_463)"/>
<rect x="35.2836" y="35.6028" width="24.1373" height="164.737" fill="url(#paint1_linear_286_463)"/>
<rect x="59.4209" y="57.3262" width="24.7407" height="143.013" fill="url(#paint2_linear_286_463)"/>
<rect x="84.1616" y="90.5149" width="24.7407" height="109.825" fill="url(#paint3_linear_286_463)"/>
<rect x="108.902" y="69.9983" width="24.7407" height="130.341" fill="url(#paint4_linear_286_463)"/>
<rect x="133.643" y="83.2737" width="24.1373" height="117.066" fill="url(#paint5_linear_286_463)"/>
<rect x="157.78" y="43.4473" width="24.7407" height="156.892" fill="url(#paint6_linear_286_463)"/>
<rect x="182.521" y="-3.01685" width="24.7407" height="203.357" fill="url(#paint7_linear_286_463)"/>
<rect x="207.262" y="-19.9131" width="24.7407" height="220.253" fill="url(#paint8_linear_286_463)"/>
<rect x="232.002" y="30.1719" width="24.1373" height="170.168" fill="url(#paint9_linear_286_463)"/>
<rect x="256.14" y="45.2576" width="24.7407" height="155.082" fill="url(#paint10_linear_286_463)"/>
<rect x="280.88" y="-160.513" width="24.7407" height="360.852" fill="url(#paint11_linear_286_463)"/>
</g>
</g>
<path d="M3 131.247L45.8437 82.972L106.79 115.557L130.022 95.9458L147.22 106.506L219.33 48.5764L259.459 78.1446L313.164 8.14648" stroke="white" stroke-width="6"/>
<path d="M302.145 9.32782L313.24 8.15556L314.412 19.2508" stroke="white" stroke-width="6"/>
<defs>
<linearGradient id="paint0_linear_286_463" x1="22.9132" y1="85.6875" x2="22.9132" y2="200.34" gradientUnits="userSpaceOnUse">
<stop stop-color="#D9D9D9"/>
<stop offset="1" stop-color="#737373" stop-opacity="0"/>
</linearGradient>
<linearGradient id="paint1_linear_286_463" x1="47.3522" y1="35.6028" x2="47.3522" y2="200.34" gradientUnits="userSpaceOnUse">
<stop stop-color="#D9D9D9"/>
<stop offset="1" stop-color="#737373" stop-opacity="0"/>
</linearGradient>
<linearGradient id="paint2_linear_286_463" x1="71.7912" y1="57.3262" x2="71.7912" y2="200.34" gradientUnits="userSpaceOnUse">
<stop stop-color="#D9D9D9"/>
<stop offset="1" stop-color="#737373" stop-opacity="0"/>
</linearGradient>
<linearGradient id="paint3_linear_286_463" x1="96.5319" y1="90.5149" x2="96.5319" y2="200.339" gradientUnits="userSpaceOnUse">
<stop stop-color="#D9D9D9"/>
<stop offset="1" stop-color="#737373" stop-opacity="0"/>
</linearGradient>
<linearGradient id="paint4_linear_286_463" x1="121.273" y1="69.9983" x2="121.273" y2="200.34" gradientUnits="userSpaceOnUse">
<stop stop-color="#D9D9D9"/>
<stop offset="1" stop-color="#737373" stop-opacity="0"/>
</linearGradient>
<linearGradient id="paint5_linear_286_463" x1="145.712" y1="83.2737" x2="145.712" y2="200.339" gradientUnits="userSpaceOnUse">
<stop stop-color="#D9D9D9"/>
<stop offset="1" stop-color="#737373" stop-opacity="0"/>
</linearGradient>
<linearGradient id="paint6_linear_286_463" x1="170.151" y1="43.4473" x2="170.151" y2="200.34" gradientUnits="userSpaceOnUse">
<stop stop-color="#D9D9D9"/>
<stop offset="1" stop-color="#737373" stop-opacity="0"/>
</linearGradient>
<linearGradient id="paint7_linear_286_463" x1="194.891" y1="-3.01685" x2="194.891" y2="200.34" gradientUnits="userSpaceOnUse">
<stop stop-color="#D9D9D9"/>
<stop offset="1" stop-color="#737373" stop-opacity="0"/>
</linearGradient>
<linearGradient id="paint8_linear_286_463" x1="219.632" y1="-19.9131" x2="219.632" y2="200.34" gradientUnits="userSpaceOnUse">
<stop stop-color="#D9D9D9"/>
<stop offset="1" stop-color="#737373" stop-opacity="0"/>
</linearGradient>
<linearGradient id="paint9_linear_286_463" x1="244.071" y1="30.1719" x2="244.071" y2="200.34" gradientUnits="userSpaceOnUse">
<stop stop-color="#D9D9D9"/>
<stop offset="1" stop-color="#737373" stop-opacity="0"/>
</linearGradient>
<linearGradient id="paint10_linear_286_463" x1="268.51" y1="45.2576" x2="268.51" y2="200.34" gradientUnits="userSpaceOnUse">
<stop stop-color="#D9D9D9"/>
<stop offset="1" stop-color="#737373" stop-opacity="0"/>
</linearGradient>
<linearGradient id="paint11_linear_286_463" x1="293.251" y1="-160.513" x2="293.251" y2="200.34" gradientUnits="userSpaceOnUse">
<stop stop-color="#D9D9D9"/>
<stop offset="1" stop-color="#737373" stop-opacity="0"/>
</linearGradient>
</defs>
</svg>
