<svg width="178" height="14" viewBox="0 0 178 14" fill="none" xmlns="http://www.w3.org/2000/svg">
<path d="M1.8 1.612V10H0.96V1.612H1.8ZM6.77419 3.328C7.55819 3.328 8.19819 3.572 8.69419 4.06C9.19019 4.54 9.43819 5.24 9.43819 6.16V10H8.61019V6.256C8.61019 5.544 8.43019 5 8.07019 4.624C7.71819 4.248 7.23419 4.06 6.61819 4.06C5.98619 4.06 5.48219 4.26 5.10619 4.66C4.73019 5.06 4.54219 5.648 4.54219 6.424V10H3.70219V3.448H4.54219V4.564C4.75019 4.164 5.05019 3.86 5.44219 3.652C5.83419 3.436 6.27819 3.328 6.77419 3.328ZM10.9119 6.724C10.9119 6.044 11.0479 5.452 11.3199 4.948C11.5919 4.436 11.9679 4.044 12.4479 3.772C12.9279 3.492 13.4759 3.352 14.0919 3.352C14.8999 3.352 15.5639 3.552 16.0839 3.952C16.6119 4.352 16.9519 4.896 17.1039 5.584H16.2039C16.0919 5.112 15.8479 4.744 15.4719 4.48C15.1039 4.208 14.6439 4.072 14.0919 4.072C13.6519 4.072 13.2559 4.172 12.9039 4.372C12.5519 4.572 12.2719 4.872 12.0639 5.272C11.8639 5.664 11.7639 6.148 11.7639 6.724C11.7639 7.3 11.8639 7.788 12.0639 8.188C12.2719 8.588 12.5519 8.888 12.9039 9.088C13.2559 9.288 13.6519 9.388 14.0919 9.388C14.6439 9.388 15.1039 9.256 15.4719 8.992C15.8479 8.72 16.0919 8.344 16.2039 7.864H17.1039C16.9519 8.536 16.6119 9.076 16.0839 9.484C15.5559 9.892 14.8919 10.096 14.0919 10.096C13.4759 10.096 12.9279 9.96 12.4479 9.688C11.9679 9.408 11.5919 9.016 11.3199 8.512C11.0479 8 10.9119 7.404 10.9119 6.724ZM19.4953 4.612C19.6793 4.204 19.9593 3.888 20.3353 3.664C20.7193 3.44 21.1873 3.328 21.7393 3.328V4.204H21.5113C20.9033 4.204 20.4153 4.368 20.0473 4.696C19.6793 5.024 19.4953 5.572 19.4953 6.34V10H18.6553V3.448H19.4953V4.612ZM28.931 6.388C28.931 6.676 28.923 6.896 28.907 7.048H23.471C23.495 7.544 23.615 7.968 23.831 8.32C24.047 8.672 24.331 8.94 24.683 9.124C25.035 9.3 25.419 9.388 25.835 9.388C26.379 9.388 26.835 9.256 27.203 8.992C27.579 8.728 27.827 8.372 27.947 7.924H28.835C28.675 8.564 28.331 9.088 27.803 9.496C27.283 9.896 26.627 10.096 25.835 10.096C25.219 10.096 24.667 9.96 24.179 9.688C23.691 9.408 23.307 9.016 23.027 8.512C22.755 8 22.619 7.404 22.619 6.724C22.619 6.044 22.755 5.448 23.027 4.936C23.299 4.424 23.679 4.032 24.167 3.76C24.655 3.488 25.211 3.352 25.835 3.352C26.459 3.352 27.003 3.488 27.467 3.76C27.939 4.032 28.299 4.4 28.547 4.864C28.803 5.32 28.931 5.828 28.931 6.388ZM28.079 6.364C28.087 5.876 27.987 5.46 27.779 5.116C27.579 4.772 27.303 4.512 26.951 4.336C26.599 4.16 26.215 4.072 25.799 4.072C25.175 4.072 24.643 4.272 24.203 4.672C23.763 5.072 23.519 5.636 23.471 6.364H28.079ZM30.0838 6.712C30.0838 6.04 30.2158 5.452 30.4798 4.948C30.7518 4.436 31.1238 4.044 31.5958 3.772C32.0758 3.492 32.6158 3.352 33.2158 3.352C33.8398 3.352 34.3758 3.496 34.8238 3.784C35.2798 4.072 35.6078 4.44 35.8078 4.888V3.448H36.6478V10H35.8078V8.548C35.5998 8.996 35.2678 9.368 34.8118 9.664C34.3638 9.952 33.8278 10.096 33.2038 10.096C32.6118 10.096 32.0758 9.956 31.5958 9.676C31.1238 9.396 30.7518 9 30.4798 8.488C30.2158 7.976 30.0838 7.384 30.0838 6.712ZM35.8078 6.724C35.8078 6.196 35.6998 5.732 35.4838 5.332C35.2678 4.932 34.9718 4.624 34.5958 4.408C34.2278 4.192 33.8198 4.084 33.3718 4.084C32.9078 4.084 32.4918 4.188 32.1238 4.396C31.7558 4.604 31.4638 4.908 31.2478 5.308C31.0398 5.7 30.9358 6.168 30.9358 6.712C30.9358 7.248 31.0398 7.72 31.2478 8.128C31.4638 8.528 31.7558 8.836 32.1238 9.052C32.4918 9.26 32.9078 9.364 33.3718 9.364C33.8198 9.364 34.2278 9.256 34.5958 9.04C34.9718 8.824 35.2678 8.516 35.4838 8.116C35.6998 7.716 35.8078 7.252 35.8078 6.724ZM40.8215 10.096C40.0695 10.096 39.4535 9.924 38.9735 9.58C38.5015 9.228 38.2375 8.752 38.1815 8.152H39.0455C39.0855 8.52 39.2575 8.82 39.5615 9.052C39.8735 9.276 40.2895 9.388 40.8095 9.388C41.2655 9.388 41.6215 9.28 41.8775 9.064C42.1415 8.848 42.2735 8.58 42.2735 8.26C42.2735 8.036 42.2015 7.852 42.0575 7.708C41.9135 7.564 41.7295 7.452 41.5055 7.372C41.2895 7.284 40.9935 7.192 40.6175 7.096C40.1295 6.968 39.7335 6.84 39.4295 6.712C39.1255 6.584 38.8655 6.396 38.6495 6.148C38.4415 5.892 38.3375 5.552 38.3375 5.128C38.3375 4.808 38.4335 4.512 38.6255 4.24C38.8175 3.968 39.0895 3.752 39.4415 3.592C39.7935 3.432 40.1935 3.352 40.6415 3.352C41.3455 3.352 41.9135 3.532 42.3455 3.892C42.7775 4.244 43.0095 4.732 43.0415 5.356H42.2015C42.1775 4.972 42.0255 4.664 41.7455 4.432C41.4735 4.192 41.0975 4.072 40.6175 4.072C40.1935 4.072 39.8495 4.172 39.5855 4.372C39.3215 4.572 39.1895 4.82 39.1895 5.116C39.1895 5.372 39.2655 5.584 39.4175 5.752C39.5775 5.912 39.7735 6.04 40.0055 6.136C40.2375 6.224 40.5495 6.324 40.9415 6.436C41.4135 6.564 41.7895 6.688 42.0695 6.808C42.3495 6.928 42.5895 7.104 42.7895 7.336C42.9895 7.568 43.0935 7.876 43.1015 8.26C43.1015 8.612 43.0055 8.928 42.8135 9.208C42.6215 9.48 42.3535 9.696 42.0095 9.856C41.6655 10.016 41.2695 10.096 40.8215 10.096ZM50.6107 6.388C50.6107 6.676 50.6027 6.896 50.5867 7.048H45.1507C45.1747 7.544 45.2947 7.968 45.5107 8.32C45.7267 8.672 46.0107 8.94 46.3627 9.124C46.7147 9.3 47.0987 9.388 47.5147 9.388C48.0587 9.388 48.5147 9.256 48.8827 8.992C49.2587 8.728 49.5067 8.372 49.6267 7.924H50.5147C50.3547 8.564 50.0107 9.088 49.4827 9.496C48.9627 9.896 48.3067 10.096 47.5147 10.096C46.8987 10.096 46.3467 9.96 45.8587 9.688C45.3707 9.408 44.9867 9.016 44.7067 8.512C44.4347 8 44.2987 7.404 44.2987 6.724C44.2987 6.044 44.4347 5.448 44.7067 4.936C44.9787 4.424 45.3587 4.032 45.8467 3.76C46.3347 3.488 46.8907 3.352 47.5147 3.352C48.1387 3.352 48.6827 3.488 49.1467 3.76C49.6187 4.032 49.9787 4.4 50.2267 4.864C50.4827 5.32 50.6107 5.828 50.6107 6.388ZM49.7587 6.364C49.7667 5.876 49.6667 5.46 49.4587 5.116C49.2587 4.772 48.9827 4.512 48.6307 4.336C48.2787 4.16 47.8947 4.072 47.4787 4.072C46.8547 4.072 46.3227 4.272 45.8827 4.672C45.4427 5.072 45.1987 5.636 45.1507 6.364H49.7587ZM55.8605 2.212C55.6925 2.212 55.5485 2.152 55.4285 2.032C55.3085 1.912 55.2485 1.764 55.2485 1.588C55.2485 1.412 55.3085 1.268 55.4285 1.156C55.5485 1.036 55.6925 0.976 55.8605 0.976C56.0285 0.976 56.1725 1.036 56.2925 1.156C56.4125 1.268 56.4725 1.412 56.4725 1.588C56.4725 1.764 56.4125 1.912 56.2925 2.032C56.1725 2.152 56.0285 2.212 55.8605 2.212ZM56.2805 3.448V10H55.4405V3.448H56.2805ZM61.2547 3.328C62.0387 3.328 62.6787 3.572 63.1747 4.06C63.6707 4.54 63.9187 5.24 63.9187 6.16V10H63.0907V6.256C63.0907 5.544 62.9107 5 62.5507 4.624C62.1987 4.248 61.7147 4.06 61.0987 4.06C60.4667 4.06 59.9627 4.26 59.5867 4.66C59.2107 5.06 59.0227 5.648 59.0227 6.424V10H58.1827V3.448H59.0227V4.564C59.2307 4.164 59.5307 3.86 59.9227 3.652C60.3147 3.436 60.7587 3.328 61.2547 3.328ZM69.8974 4.888C70.1054 4.448 70.4334 4.084 70.8814 3.796C71.3374 3.5 71.8774 3.352 72.5014 3.352C73.0934 3.352 73.6254 3.492 74.0974 3.772C74.5774 4.044 74.9494 4.436 75.2134 4.948C75.4854 5.452 75.6214 6.04 75.6214 6.712C75.6214 7.384 75.4854 7.976 75.2134 8.488C74.9494 9 74.5774 9.396 74.0974 9.676C73.6254 9.956 73.0934 10.096 72.5014 10.096C71.8854 10.096 71.3494 9.952 70.8934 9.664C70.4374 9.368 70.1054 9 69.8974 8.56V13.096H69.0694V3.448H69.8974V4.888ZM74.7694 6.712C74.7694 6.168 74.6614 5.7 74.4454 5.308C74.2374 4.908 73.9494 4.604 73.5814 4.396C73.2134 4.188 72.7974 4.084 72.3334 4.084C71.8854 4.084 71.4734 4.192 71.0974 4.408C70.7294 4.624 70.4374 4.932 70.2214 5.332C70.0054 5.732 69.8974 6.196 69.8974 6.724C69.8974 7.252 70.0054 7.716 70.2214 8.116C70.4374 8.516 70.7294 8.824 71.0974 9.04C71.4734 9.256 71.8854 9.364 72.3334 9.364C72.7974 9.364 73.2134 9.26 73.5814 9.052C73.9494 8.836 74.2374 8.528 74.4454 8.128C74.6614 7.72 74.7694 7.248 74.7694 6.712ZM78.007 4.612C78.191 4.204 78.471 3.888 78.847 3.664C79.231 3.44 79.699 3.328 80.251 3.328V4.204H80.023C79.415 4.204 78.927 4.368 78.559 4.696C78.191 5.024 78.007 5.572 78.007 6.34V10H77.167V3.448H78.007V4.612ZM87.4427 6.388C87.4427 6.676 87.4347 6.896 87.4187 7.048H81.9827C82.0067 7.544 82.1267 7.968 82.3427 8.32C82.5587 8.672 82.8427 8.94 83.1947 9.124C83.5467 9.3 83.9307 9.388 84.3467 9.388C84.8907 9.388 85.3467 9.256 85.7147 8.992C86.0907 8.728 86.3387 8.372 86.4587 7.924H87.3467C87.1867 8.564 86.8427 9.088 86.3147 9.496C85.7947 9.896 85.1387 10.096 84.3467 10.096C83.7307 10.096 83.1787 9.96 82.6907 9.688C82.2027 9.408 81.8187 9.016 81.5387 8.512C81.2667 8 81.1307 7.404 81.1307 6.724C81.1307 6.044 81.2667 5.448 81.5387 4.936C81.8107 4.424 82.1907 4.032 82.6787 3.76C83.1667 3.488 83.7227 3.352 84.3467 3.352C84.9707 3.352 85.5147 3.488 85.9787 3.76C86.4507 4.032 86.8107 4.4 87.0587 4.864C87.3147 5.32 87.4427 5.828 87.4427 6.388ZM86.5907 6.364C86.5987 5.876 86.4987 5.46 86.2907 5.116C86.0907 4.772 85.8147 4.512 85.4627 4.336C85.1107 4.16 84.7267 4.072 84.3107 4.072C83.6867 4.072 83.1547 4.272 82.7147 4.672C82.2747 5.072 82.0307 5.636 81.9827 6.364H86.5907ZM91.3075 9.184L93.5155 3.448H94.4035L91.7755 10H90.8275L88.1995 3.448H89.0995L91.3075 9.184ZM95.962 2.212C95.794 2.212 95.65 2.152 95.53 2.032C95.41 1.912 95.35 1.764 95.35 1.588C95.35 1.412 95.41 1.268 95.53 1.156C95.65 1.036 95.794 0.976 95.962 0.976C96.13 0.976 96.274 1.036 96.394 1.156C96.514 1.268 96.574 1.412 96.574 1.588C96.574 1.764 96.514 1.912 96.394 2.032C96.274 2.152 96.13 2.212 95.962 2.212ZM96.382 3.448V10H95.542V3.448H96.382ZM101.152 10.096C100.536 10.096 99.9802 9.96 99.4842 9.688C98.9962 9.408 98.6082 9.016 98.3202 8.512C98.0402 8 97.9002 7.404 97.9002 6.724C97.9002 6.044 98.0442 5.452 98.3322 4.948C98.6202 4.436 99.0122 4.044 99.5082 3.772C100.004 3.492 100.56 3.352 101.176 3.352C101.792 3.352 102.348 3.492 102.844 3.772C103.348 4.044 103.74 4.436 104.02 4.948C104.308 5.452 104.452 6.044 104.452 6.724C104.452 7.396 104.308 7.988 104.02 8.5C103.732 9.012 103.336 9.408 102.832 9.688C102.328 9.96 101.768 10.096 101.152 10.096ZM101.152 9.364C101.584 9.364 101.984 9.268 102.352 9.076C102.72 8.876 103.016 8.58 103.24 8.188C103.472 7.788 103.588 7.3 103.588 6.724C103.588 6.148 103.476 5.664 103.252 5.272C103.028 4.872 102.732 4.576 102.364 4.384C101.996 4.184 101.596 4.084 101.164 4.084C100.732 4.084 100.332 4.184 99.9642 4.384C99.5962 4.576 99.3002 4.872 99.0762 5.272C98.8602 5.664 98.7522 6.148 98.7522 6.724C98.7522 7.3 98.8602 7.788 99.0762 8.188C99.3002 8.58 99.5922 8.876 99.9522 9.076C100.32 9.268 100.72 9.364 101.152 9.364ZM111.659 3.448V10H110.819V8.848C110.627 9.256 110.331 9.568 109.931 9.784C109.531 10 109.083 10.108 108.587 10.108C107.803 10.108 107.163 9.868 106.667 9.388C106.171 8.9 105.923 8.196 105.923 7.276V3.448H106.751V7.18C106.751 7.892 106.927 8.436 107.279 8.812C107.639 9.188 108.127 9.376 108.743 9.376C109.375 9.376 109.879 9.176 110.255 8.776C110.631 8.376 110.819 7.788 110.819 7.012V3.448H111.659ZM115.833 10.096C115.081 10.096 114.465 9.924 113.985 9.58C113.513 9.228 113.249 8.752 113.193 8.152H114.057C114.097 8.52 114.269 8.82 114.573 9.052C114.885 9.276 115.301 9.388 115.821 9.388C116.277 9.388 116.633 9.28 116.889 9.064C117.153 8.848 117.285 8.58 117.285 8.26C117.285 8.036 117.213 7.852 117.069 7.708C116.925 7.564 116.741 7.452 116.517 7.372C116.301 7.284 116.005 7.192 115.629 7.096C115.141 6.968 114.745 6.84 114.441 6.712C114.137 6.584 113.877 6.396 113.661 6.148C113.453 5.892 113.349 5.552 113.349 5.128C113.349 4.808 113.445 4.512 113.637 4.24C113.829 3.968 114.101 3.752 114.453 3.592C114.805 3.432 115.205 3.352 115.653 3.352C116.357 3.352 116.925 3.532 117.357 3.892C117.789 4.244 118.021 4.732 118.053 5.356H117.213C117.189 4.972 117.037 4.664 116.757 4.432C116.485 4.192 116.109 4.072 115.629 4.072C115.205 4.072 114.861 4.172 114.597 4.372C114.333 4.572 114.201 4.82 114.201 5.116C114.201 5.372 114.277 5.584 114.429 5.752C114.589 5.912 114.785 6.04 115.017 6.136C115.249 6.224 115.561 6.324 115.953 6.436C116.425 6.564 116.801 6.688 117.081 6.808C117.361 6.928 117.601 7.104 117.801 7.336C118.001 7.568 118.105 7.876 118.113 8.26C118.113 8.612 118.017 8.928 117.825 9.208C117.633 9.48 117.365 9.696 117.021 9.856C116.677 10.016 116.281 10.096 115.833 10.096ZM122.639 9.34C124.111 8.236 125.247 7.248 126.047 6.376C126.855 5.496 127.259 4.636 127.259 3.796C127.259 3.244 127.119 2.804 126.839 2.476C126.567 2.14 126.119 1.972 125.495 1.972C124.887 1.972 124.415 2.164 124.079 2.548C123.751 2.924 123.567 3.428 123.527 4.06H122.711C122.759 3.172 123.031 2.484 123.527 1.996C124.031 1.5 124.687 1.252 125.495 1.252C126.271 1.252 126.899 1.472 127.379 1.912C127.859 2.344 128.099 2.96 128.099 3.76C128.099 4.728 127.695 5.668 126.887 6.58C126.087 7.484 125.099 8.368 123.923 9.232H128.363V9.94H122.639V9.34ZM140.948 3.328C141.716 3.328 142.34 3.572 142.82 4.06C143.308 4.54 143.552 5.24 143.552 6.16V10H142.724V6.256C142.724 5.544 142.552 5 142.208 4.624C141.864 4.248 141.396 4.06 140.804 4.06C140.188 4.06 139.696 4.264 139.328 4.672C138.96 5.08 138.776 5.672 138.776 6.448V10H137.948V6.256C137.948 5.544 137.776 5 137.432 4.624C137.088 4.248 136.616 4.06 136.016 4.06C135.4 4.06 134.908 4.264 134.54 4.672C134.172 5.08 133.988 5.672 133.988 6.448V10H133.148V3.448H133.988V4.576C134.196 4.168 134.492 3.86 134.876 3.652C135.26 3.436 135.688 3.328 136.16 3.328C136.728 3.328 137.224 3.464 137.648 3.736C138.08 4.008 138.392 4.408 138.584 4.936C138.76 4.416 139.06 4.02 139.484 3.748C139.916 3.468 140.404 3.328 140.948 3.328ZM148.285 10.096C147.669 10.096 147.113 9.96 146.617 9.688C146.129 9.408 145.741 9.016 145.453 8.512C145.173 8 145.033 7.404 145.033 6.724C145.033 6.044 145.177 5.452 145.465 4.948C145.753 4.436 146.145 4.044 146.641 3.772C147.137 3.492 147.693 3.352 148.309 3.352C148.925 3.352 149.481 3.492 149.977 3.772C150.481 4.044 150.873 4.436 151.153 4.948C151.441 5.452 151.585 6.044 151.585 6.724C151.585 7.396 151.441 7.988 151.153 8.5C150.865 9.012 150.469 9.408 149.965 9.688C149.461 9.96 148.901 10.096 148.285 10.096ZM148.285 9.364C148.717 9.364 149.117 9.268 149.485 9.076C149.853 8.876 150.149 8.58 150.373 8.188C150.605 7.788 150.721 7.3 150.721 6.724C150.721 6.148 150.609 5.664 150.385 5.272C150.161 4.872 149.865 4.576 149.497 4.384C149.129 4.184 148.729 4.084 148.297 4.084C147.865 4.084 147.465 4.184 147.097 4.384C146.729 4.576 146.433 4.872 146.209 5.272C145.993 5.664 145.885 6.148 145.885 6.724C145.885 7.3 145.993 7.788 146.209 8.188C146.433 8.58 146.725 8.876 147.085 9.076C147.453 9.268 147.853 9.364 148.285 9.364ZM156.188 3.328C156.972 3.328 157.612 3.572 158.108 4.06C158.604 4.54 158.852 5.24 158.852 6.16V10H158.024V6.256C158.024 5.544 157.844 5 157.484 4.624C157.132 4.248 156.648 4.06 156.032 4.06C155.4 4.06 154.896 4.26 154.52 4.66C154.144 5.06 153.956 5.648 153.956 6.424V10H153.116V3.448H153.956V4.564C154.164 4.164 154.464 3.86 154.856 3.652C155.248 3.436 155.692 3.328 156.188 3.328ZM161.802 4.156V8.224C161.802 8.624 161.878 8.9 162.03 9.052C162.182 9.204 162.45 9.28 162.834 9.28H163.602V10H162.702C162.11 10 161.67 9.864 161.382 9.592C161.094 9.312 160.95 8.856 160.95 8.224V4.156H160.038V3.448H160.95V1.804H161.802V3.448H163.602V4.156H161.802ZM168.107 3.328C168.603 3.328 169.047 3.432 169.439 3.64C169.839 3.848 170.151 4.168 170.375 4.6C170.607 5.024 170.723 5.544 170.723 6.16V10H169.895V6.256C169.895 5.544 169.715 5 169.355 4.624C169.003 4.248 168.519 4.06 167.903 4.06C167.271 4.06 166.767 4.26 166.391 4.66C166.015 5.06 165.827 5.648 165.827 6.424V10H164.987V1.12H165.827V4.564C166.035 4.172 166.339 3.868 166.739 3.652C167.147 3.436 167.603 3.328 168.107 3.328ZM174.837 10.096C174.085 10.096 173.469 9.924 172.989 9.58C172.517 9.228 172.253 8.752 172.197 8.152H173.061C173.101 8.52 173.273 8.82 173.577 9.052C173.889 9.276 174.305 9.388 174.825 9.388C175.281 9.388 175.637 9.28 175.893 9.064C176.157 8.848 176.289 8.58 176.289 8.26C176.289 8.036 176.217 7.852 176.073 7.708C175.929 7.564 175.745 7.452 175.521 7.372C175.305 7.284 175.009 7.192 174.633 7.096C174.145 6.968 173.749 6.84 173.445 6.712C173.141 6.584 172.881 6.396 172.665 6.148C172.457 5.892 172.353 5.552 172.353 5.128C172.353 4.808 172.449 4.512 172.641 4.24C172.833 3.968 173.105 3.752 173.457 3.592C173.809 3.432 174.209 3.352 174.657 3.352C175.361 3.352 175.929 3.532 176.361 3.892C176.793 4.244 177.025 4.732 177.057 5.356H176.217C176.193 4.972 176.041 4.664 175.761 4.432C175.489 4.192 175.113 4.072 174.633 4.072C174.209 4.072 173.865 4.172 173.601 4.372C173.337 4.572 173.205 4.82 173.205 5.116C173.205 5.372 173.281 5.584 173.433 5.752C173.593 5.912 173.789 6.04 174.021 6.136C174.253 6.224 174.565 6.324 174.957 6.436C175.429 6.564 175.805 6.688 176.085 6.808C176.365 6.928 176.605 7.104 176.805 7.336C177.005 7.568 177.109 7.876 177.117 8.26C177.117 8.612 177.021 8.928 176.829 9.208C176.637 9.48 176.369 9.696 176.025 9.856C175.681 10.016 175.285 10.096 174.837 10.096Z" fill="white"/>
</svg>
