<svg width="181" height="25" viewBox="0 0 181 25" fill="none" xmlns="http://www.w3.org/2000/svg">
<path d="M1.18086 4.612C1.36486 4.204 1.64486 3.888 2.02086 3.664C2.40486 3.44 2.87286 3.328 3.42486 3.328V4.204H3.19686C2.58886 4.204 2.10086 4.368 1.73286 4.696C1.36486 5.024 1.18086 5.572 1.18086 6.34V10H0.340859V3.448H1.18086V4.612ZM10.6165 6.388C10.6165 6.676 10.6085 6.896 10.5925 7.048H5.15652C5.18052 7.544 5.30052 7.968 5.51652 8.32C5.73252 8.672 6.01652 8.94 6.36852 9.124C6.72052 9.3 7.10452 9.388 7.52052 9.388C8.06452 9.388 8.52052 9.256 8.88852 8.992C9.26452 8.728 9.51252 8.372 9.63252 7.924H10.5205C10.3605 8.564 10.0165 9.088 9.48852 9.496C8.96852 9.896 8.31252 10.096 7.52052 10.096C6.90452 10.096 6.35252 9.96 5.86452 9.688C5.37652 9.408 4.99252 9.016 4.71252 8.512C4.44052 8 4.30452 7.404 4.30452 6.724C4.30452 6.044 4.44052 5.448 4.71252 4.936C4.98452 4.424 5.36452 4.032 5.85252 3.76C6.34052 3.488 6.89652 3.352 7.52052 3.352C8.14452 3.352 8.68852 3.488 9.15252 3.76C9.62452 4.032 9.98452 4.4 10.2325 4.864C10.4885 5.32 10.6165 5.828 10.6165 6.388ZM9.76452 6.364C9.77252 5.876 9.67252 5.46 9.46452 5.116C9.26452 4.772 8.98852 4.512 8.63652 4.336C8.28452 4.16 7.90052 4.072 7.48452 4.072C6.86052 4.072 6.32852 4.272 5.88852 4.672C5.44852 5.072 5.20452 5.636 5.15652 6.364H9.76452ZM14.4814 9.184L16.6894 3.448H17.5774L14.9494 10H14.0014L11.3734 3.448H12.2734L14.4814 9.184ZM24.6439 6.388C24.6439 6.676 24.6359 6.896 24.6199 7.048H19.1839C19.2079 7.544 19.3279 7.968 19.5439 8.32C19.7599 8.672 20.0439 8.94 20.3959 9.124C20.7479 9.3 21.1319 9.388 21.5479 9.388C22.0919 9.388 22.5479 9.256 22.9159 8.992C23.2919 8.728 23.5399 8.372 23.6599 7.924H24.5479C24.3879 8.564 24.0439 9.088 23.5159 9.496C22.9959 9.896 22.3399 10.096 21.5479 10.096C20.9319 10.096 20.3799 9.96 19.8919 9.688C19.4039 9.408 19.0199 9.016 18.7399 8.512C18.4679 8 18.3319 7.404 18.3319 6.724C18.3319 6.044 18.4679 5.448 18.7399 4.936C19.0119 4.424 19.3919 4.032 19.8799 3.76C20.3679 3.488 20.9239 3.352 21.5479 3.352C22.1719 3.352 22.7159 3.488 23.1799 3.76C23.6519 4.032 24.0119 4.4 24.2599 4.864C24.5159 5.32 24.6439 5.828 24.6439 6.388ZM23.7919 6.364C23.7999 5.876 23.6999 5.46 23.4919 5.116C23.2919 4.772 23.0159 4.512 22.6639 4.336C22.3119 4.16 21.9279 4.072 21.5119 4.072C20.8879 4.072 20.3559 4.272 19.9159 4.672C19.4759 5.072 19.2319 5.636 19.1839 6.364H23.7919ZM29.2527 3.328C30.0367 3.328 30.6767 3.572 31.1727 4.06C31.6687 4.54 31.9167 5.24 31.9167 6.16V10H31.0887V6.256C31.0887 5.544 30.9087 5 30.5487 4.624C30.1967 4.248 29.7127 4.06 29.0967 4.06C28.4647 4.06 27.9607 4.26 27.5847 4.66C27.2087 5.06 27.0207 5.648 27.0207 6.424V10H26.1807V3.448H27.0207V4.564C27.2287 4.164 27.5287 3.86 27.9207 3.652C28.3127 3.436 28.7567 3.328 29.2527 3.328ZM39.4505 3.448V10H38.6105V8.848C38.4185 9.256 38.1225 9.568 37.7225 9.784C37.3225 10 36.8745 10.108 36.3785 10.108C35.5945 10.108 34.9545 9.868 34.4585 9.388C33.9625 8.9 33.7145 8.196 33.7145 7.276V3.448H34.5425V7.18C34.5425 7.892 34.7185 8.436 35.0705 8.812C35.4305 9.188 35.9185 9.376 36.5345 9.376C37.1665 9.376 37.6705 9.176 38.0465 8.776C38.4225 8.376 38.6105 7.788 38.6105 7.012V3.448H39.4505ZM47.2962 6.388C47.2962 6.676 47.2882 6.896 47.2722 7.048H41.8362C41.8602 7.544 41.9802 7.968 42.1962 8.32C42.4122 8.672 42.6962 8.94 43.0482 9.124C43.4002 9.3 43.7842 9.388 44.2002 9.388C44.7442 9.388 45.2002 9.256 45.5682 8.992C45.9442 8.728 46.1922 8.372 46.3122 7.924H47.2002C47.0402 8.564 46.6962 9.088 46.1682 9.496C45.6482 9.896 44.9922 10.096 44.2002 10.096C43.5842 10.096 43.0322 9.96 42.5442 9.688C42.0562 9.408 41.6722 9.016 41.3922 8.512C41.1202 8 40.9842 7.404 40.9842 6.724C40.9842 6.044 41.1202 5.448 41.3922 4.936C41.6642 4.424 42.0442 4.032 42.5322 3.76C43.0202 3.488 43.5762 3.352 44.2002 3.352C44.8242 3.352 45.3682 3.488 45.8322 3.76C46.3042 4.032 46.6642 4.4 46.9122 4.864C47.1682 5.32 47.2962 5.828 47.2962 6.388ZM46.4442 6.364C46.4522 5.876 46.3522 5.46 46.1442 5.116C45.9442 4.772 45.6682 4.512 45.3162 4.336C44.9642 4.16 44.5802 4.072 44.1642 4.072C43.5402 4.072 43.0082 4.272 42.5682 4.672C42.1282 5.072 41.8842 5.636 41.8362 6.364H46.4442ZM54.874 3.352C55.49 3.352 56.026 3.496 56.482 3.784C56.938 4.072 57.266 4.436 57.466 4.876V3.448H58.306V10.168C58.306 10.768 58.174 11.3 57.91 11.764C57.654 12.228 57.294 12.584 56.83 12.832C56.366 13.088 55.838 13.216 55.246 13.216C54.406 13.216 53.706 13.016 53.146 12.616C52.594 12.216 52.25 11.672 52.114 10.984H52.942C53.086 11.44 53.358 11.804 53.758 12.076C54.166 12.348 54.662 12.484 55.246 12.484C55.67 12.484 56.05 12.392 56.386 12.208C56.722 12.032 56.986 11.768 57.178 11.416C57.37 11.064 57.466 10.648 57.466 10.168V8.548C57.258 8.996 56.926 9.368 56.47 9.664C56.022 9.952 55.49 10.096 54.874 10.096C54.274 10.096 53.734 9.956 53.254 9.676C52.782 9.396 52.41 9 52.138 8.488C51.874 7.976 51.742 7.384 51.742 6.712C51.742 6.04 51.874 5.452 52.138 4.948C52.41 4.436 52.782 4.044 53.254 3.772C53.734 3.492 54.274 3.352 54.874 3.352ZM57.466 6.724C57.466 6.196 57.358 5.732 57.142 5.332C56.926 4.932 56.63 4.624 56.254 4.408C55.886 4.192 55.478 4.084 55.03 4.084C54.566 4.084 54.15 4.188 53.782 4.396C53.414 4.604 53.122 4.908 52.906 5.308C52.698 5.7 52.594 6.168 52.594 6.712C52.594 7.248 52.698 7.72 52.906 8.128C53.122 8.528 53.414 8.836 53.782 9.052C54.15 9.26 54.566 9.364 55.03 9.364C55.478 9.364 55.886 9.256 56.254 9.04C56.63 8.824 56.926 8.516 57.142 8.116C57.358 7.716 57.466 7.252 57.466 6.724ZM66.1517 6.388C66.1517 6.676 66.1437 6.896 66.1277 7.048H60.6917C60.7157 7.544 60.8357 7.968 61.0517 8.32C61.2677 8.672 61.5517 8.94 61.9037 9.124C62.2557 9.3 62.6397 9.388 63.0557 9.388C63.5997 9.388 64.0557 9.256 64.4237 8.992C64.7997 8.728 65.0477 8.372 65.1677 7.924H66.0557C65.8957 8.564 65.5517 9.088 65.0237 9.496C64.5037 9.896 63.8477 10.096 63.0557 10.096C62.4397 10.096 61.8877 9.96 61.3997 9.688C60.9117 9.408 60.5277 9.016 60.2477 8.512C59.9757 8 59.8397 7.404 59.8397 6.724C59.8397 6.044 59.9757 5.448 60.2477 4.936C60.5197 4.424 60.8997 4.032 61.3877 3.76C61.8757 3.488 62.4317 3.352 63.0557 3.352C63.6797 3.352 64.2237 3.488 64.6877 3.76C65.1597 4.032 65.5197 4.4 65.7677 4.864C66.0237 5.32 66.1517 5.828 66.1517 6.388ZM65.2997 6.364C65.3077 5.876 65.2077 5.46 64.9997 5.116C64.7997 4.772 64.5237 4.512 64.1717 4.336C63.8197 4.16 63.4357 4.072 63.0197 4.072C62.3957 4.072 61.8637 4.272 61.4237 4.672C60.9837 5.072 60.7397 5.636 60.6917 6.364H65.2997ZM70.7605 3.328C71.5445 3.328 72.1845 3.572 72.6805 4.06C73.1765 4.54 73.4245 5.24 73.4245 6.16V10H72.5965V6.256C72.5965 5.544 72.4165 5 72.0565 4.624C71.7045 4.248 71.2205 4.06 70.6045 4.06C69.9725 4.06 69.4685 4.26 69.0925 4.66C68.7165 5.06 68.5285 5.648 68.5285 6.424V10H67.6885V3.448H68.5285V4.564C68.7365 4.164 69.0365 3.86 69.4285 3.652C69.8205 3.436 70.2645 3.328 70.7605 3.328ZM81.2103 6.388C81.2103 6.676 81.2023 6.896 81.1863 7.048H75.7503C75.7743 7.544 75.8943 7.968 76.1103 8.32C76.3263 8.672 76.6103 8.94 76.9623 9.124C77.3143 9.3 77.6983 9.388 78.1143 9.388C78.6583 9.388 79.1143 9.256 79.4823 8.992C79.8583 8.728 80.1063 8.372 80.2263 7.924H81.1143C80.9543 8.564 80.6103 9.088 80.0823 9.496C79.5623 9.896 78.9063 10.096 78.1143 10.096C77.4983 10.096 76.9463 9.96 76.4583 9.688C75.9703 9.408 75.5863 9.016 75.3063 8.512C75.0343 8 74.8983 7.404 74.8983 6.724C74.8983 6.044 75.0343 5.448 75.3063 4.936C75.5783 4.424 75.9583 4.032 76.4463 3.76C76.9343 3.488 77.4903 3.352 78.1143 3.352C78.7383 3.352 79.2823 3.488 79.7463 3.76C80.2183 4.032 80.5783 4.4 80.8263 4.864C81.0823 5.32 81.2103 5.828 81.2103 6.388ZM80.3583 6.364C80.3663 5.876 80.2663 5.46 80.0583 5.116C79.8583 4.772 79.5823 4.512 79.2303 4.336C78.8783 4.16 78.4943 4.072 78.0783 4.072C77.4543 4.072 76.9223 4.272 76.4823 4.672C76.0423 5.072 75.7983 5.636 75.7503 6.364H80.3583ZM83.5871 4.612C83.7711 4.204 84.0511 3.888 84.4271 3.664C84.8111 3.44 85.2791 3.328 85.8311 3.328V4.204H85.6031C84.9951 4.204 84.5071 4.368 84.1391 4.696C83.7711 5.024 83.5871 5.572 83.5871 6.34V10H82.7471V3.448H83.5871V4.612ZM86.7108 6.712C86.7108 6.04 86.8428 5.452 87.1068 4.948C87.3788 4.436 87.7508 4.044 88.2228 3.772C88.7028 3.492 89.2428 3.352 89.8428 3.352C90.4668 3.352 91.0028 3.496 91.4508 3.784C91.9068 4.072 92.2348 4.44 92.4348 4.888V3.448H93.2748V10H92.4348V8.548C92.2268 8.996 91.8948 9.368 91.4388 9.664C90.9908 9.952 90.4548 10.096 89.8308 10.096C89.2388 10.096 88.7028 9.956 88.2228 9.676C87.7508 9.396 87.3788 9 87.1068 8.488C86.8428 7.976 86.7108 7.384 86.7108 6.712ZM92.4348 6.724C92.4348 6.196 92.3268 5.732 92.1108 5.332C91.8948 4.932 91.5988 4.624 91.2228 4.408C90.8548 4.192 90.4468 4.084 89.9988 4.084C89.5348 4.084 89.1188 4.188 88.7508 4.396C88.3828 4.604 88.0908 4.908 87.8748 5.308C87.6668 5.7 87.5628 6.168 87.5628 6.712C87.5628 7.248 87.6668 7.72 87.8748 8.128C88.0908 8.528 88.3828 8.836 88.7508 9.052C89.1188 9.26 89.5348 9.364 89.9988 9.364C90.4468 9.364 90.8548 9.256 91.2228 9.04C91.5988 8.824 91.8948 8.516 92.1108 8.116C92.3268 7.716 92.4348 7.252 92.4348 6.724ZM96.2844 4.156V8.224C96.2844 8.624 96.3604 8.9 96.5124 9.052C96.6644 9.204 96.9324 9.28 97.3164 9.28H98.0844V10H97.1844C96.5924 10 96.1524 9.864 95.8644 9.592C95.5764 9.312 95.4324 8.856 95.4324 8.224V4.156H94.5204V3.448H95.4324V1.804H96.2844V3.448H98.0844V4.156H96.2844ZM105.398 6.388C105.398 6.676 105.39 6.896 105.374 7.048H99.9378C99.9618 7.544 100.082 7.968 100.298 8.32C100.514 8.672 100.798 8.94 101.15 9.124C101.502 9.3 101.886 9.388 102.302 9.388C102.846 9.388 103.302 9.256 103.67 8.992C104.046 8.728 104.294 8.372 104.414 7.924H105.302C105.142 8.564 104.798 9.088 104.27 9.496C103.75 9.896 103.094 10.096 102.302 10.096C101.686 10.096 101.134 9.96 100.646 9.688C100.158 9.408 99.7738 9.016 99.4938 8.512C99.2218 8 99.0858 7.404 99.0858 6.724C99.0858 6.044 99.2218 5.448 99.4938 4.936C99.7658 4.424 100.146 4.032 100.634 3.76C101.122 3.488 101.678 3.352 102.302 3.352C102.926 3.352 103.47 3.488 103.934 3.76C104.406 4.032 104.766 4.4 105.014 4.864C105.27 5.32 105.398 5.828 105.398 6.388ZM104.546 6.364C104.554 5.876 104.454 5.46 104.246 5.116C104.046 4.772 103.77 4.512 103.418 4.336C103.066 4.16 102.682 4.072 102.266 4.072C101.642 4.072 101.11 4.272 100.67 4.672C100.23 5.072 99.9858 5.636 99.9378 6.364H104.546ZM106.551 6.712C106.551 6.04 106.687 5.452 106.959 4.948C107.231 4.436 107.603 4.044 108.075 3.772C108.555 3.492 109.095 3.352 109.695 3.352C110.271 3.352 110.791 3.492 111.255 3.772C111.719 4.052 112.059 4.416 112.275 4.864V1.12H113.115V10H112.275V8.536C112.075 8.992 111.747 9.368 111.291 9.664C110.835 9.952 110.299 10.096 109.683 10.096C109.083 10.096 108.543 9.956 108.063 9.676C107.591 9.396 107.219 9 106.947 8.488C106.683 7.976 106.551 7.384 106.551 6.712ZM112.275 6.724C112.275 6.196 112.167 5.732 111.951 5.332C111.735 4.932 111.439 4.624 111.063 4.408C110.695 4.192 110.287 4.084 109.839 4.084C109.375 4.084 108.959 4.188 108.591 4.396C108.223 4.604 107.931 4.908 107.715 5.308C107.507 5.7 107.403 6.168 107.403 6.712C107.403 7.248 107.507 7.72 107.715 8.128C107.931 8.528 108.223 8.836 108.591 9.052C108.959 9.26 109.375 9.364 109.839 9.364C110.287 9.364 110.695 9.256 111.063 9.04C111.439 8.824 111.735 8.516 111.951 8.116C112.167 7.716 112.275 7.252 112.275 6.724ZM118.745 2.212C118.577 2.212 118.433 2.152 118.313 2.032C118.193 1.912 118.133 1.764 118.133 1.588C118.133 1.412 118.193 1.268 118.313 1.156C118.433 1.036 118.577 0.976 118.745 0.976C118.913 0.976 119.057 1.036 119.177 1.156C119.297 1.268 119.357 1.412 119.357 1.588C119.357 1.764 119.297 1.912 119.177 2.032C119.057 2.152 118.913 2.212 118.745 2.212ZM119.165 3.448V10H118.325V3.448H119.165ZM124.139 3.328C124.923 3.328 125.563 3.572 126.059 4.06C126.555 4.54 126.803 5.24 126.803 6.16V10H125.975V6.256C125.975 5.544 125.795 5 125.435 4.624C125.083 4.248 124.599 4.06 123.983 4.06C123.351 4.06 122.847 4.26 122.471 4.66C122.095 5.06 121.907 5.648 121.907 6.424V10H121.067V3.448H121.907V4.564C122.115 4.164 122.415 3.86 122.807 3.652C123.199 3.436 123.643 3.328 124.139 3.328ZM132.782 4.888C132.99 4.448 133.318 4.084 133.766 3.796C134.222 3.5 134.762 3.352 135.386 3.352C135.978 3.352 136.51 3.492 136.982 3.772C137.462 4.044 137.834 4.436 138.098 4.948C138.37 5.452 138.506 6.04 138.506 6.712C138.506 7.384 138.37 7.976 138.098 8.488C137.834 9 137.462 9.396 136.982 9.676C136.51 9.956 135.978 10.096 135.386 10.096C134.77 10.096 134.234 9.952 133.778 9.664C133.322 9.368 132.99 9 132.782 8.56V13.096H131.954V3.448H132.782V4.888ZM137.654 6.712C137.654 6.168 137.546 5.7 137.33 5.308C137.122 4.908 136.834 4.604 136.466 4.396C136.098 4.188 135.682 4.084 135.218 4.084C134.77 4.084 134.358 4.192 133.982 4.408C133.614 4.624 133.322 4.932 133.106 5.332C132.89 5.732 132.782 6.196 132.782 6.724C132.782 7.252 132.89 7.716 133.106 8.116C133.322 8.516 133.614 8.824 133.982 9.04C134.358 9.256 134.77 9.364 135.218 9.364C135.682 9.364 136.098 9.26 136.466 9.052C136.834 8.836 137.122 8.528 137.33 8.128C137.546 7.72 137.654 7.248 137.654 6.712ZM140.892 4.612C141.076 4.204 141.356 3.888 141.732 3.664C142.116 3.44 142.584 3.328 143.136 3.328V4.204H142.908C142.3 4.204 141.812 4.368 141.444 4.696C141.076 5.024 140.892 5.572 140.892 6.34V10H140.052V3.448H140.892V4.612ZM150.327 6.388C150.327 6.676 150.319 6.896 150.303 7.048H144.867C144.891 7.544 145.011 7.968 145.227 8.32C145.443 8.672 145.727 8.94 146.079 9.124C146.431 9.3 146.815 9.388 147.231 9.388C147.775 9.388 148.231 9.256 148.599 8.992C148.975 8.728 149.223 8.372 149.343 7.924H150.231C150.071 8.564 149.727 9.088 149.199 9.496C148.679 9.896 148.023 10.096 147.231 10.096C146.615 10.096 146.063 9.96 145.575 9.688C145.087 9.408 144.703 9.016 144.423 8.512C144.151 8 144.015 7.404 144.015 6.724C144.015 6.044 144.151 5.448 144.423 4.936C144.695 4.424 145.075 4.032 145.563 3.76C146.051 3.488 146.607 3.352 147.231 3.352C147.855 3.352 148.399 3.488 148.863 3.76C149.335 4.032 149.695 4.4 149.943 4.864C150.199 5.32 150.327 5.828 150.327 6.388ZM149.475 6.364C149.483 5.876 149.383 5.46 149.175 5.116C148.975 4.772 148.699 4.512 148.347 4.336C147.995 4.16 147.611 4.072 147.195 4.072C146.571 4.072 146.039 4.272 145.599 4.672C145.159 5.072 144.915 5.636 144.867 6.364H149.475ZM154.192 9.184L156.4 3.448H157.288L154.66 10H153.712L151.084 3.448H151.984L154.192 9.184ZM158.847 2.212C158.679 2.212 158.535 2.152 158.415 2.032C158.295 1.912 158.235 1.764 158.235 1.588C158.235 1.412 158.295 1.268 158.415 1.156C158.535 1.036 158.679 0.976 158.847 0.976C159.015 0.976 159.159 1.036 159.279 1.156C159.399 1.268 159.459 1.412 159.459 1.588C159.459 1.764 159.399 1.912 159.279 2.032C159.159 2.152 159.015 2.212 158.847 2.212ZM159.267 3.448V10H158.427V3.448H159.267ZM164.037 10.096C163.421 10.096 162.865 9.96 162.369 9.688C161.881 9.408 161.493 9.016 161.205 8.512C160.925 8 160.785 7.404 160.785 6.724C160.785 6.044 160.929 5.452 161.217 4.948C161.505 4.436 161.897 4.044 162.393 3.772C162.889 3.492 163.445 3.352 164.061 3.352C164.677 3.352 165.233 3.492 165.729 3.772C166.233 4.044 166.625 4.436 166.905 4.948C167.193 5.452 167.337 6.044 167.337 6.724C167.337 7.396 167.193 7.988 166.905 8.5C166.617 9.012 166.221 9.408 165.717 9.688C165.213 9.96 164.653 10.096 164.037 10.096ZM164.037 9.364C164.469 9.364 164.869 9.268 165.237 9.076C165.605 8.876 165.901 8.58 166.125 8.188C166.357 7.788 166.473 7.3 166.473 6.724C166.473 6.148 166.361 5.664 166.137 5.272C165.913 4.872 165.617 4.576 165.249 4.384C164.881 4.184 164.481 4.084 164.049 4.084C163.617 4.084 163.217 4.184 162.849 4.384C162.481 4.576 162.185 4.872 161.961 5.272C161.745 5.664 161.637 6.148 161.637 6.724C161.637 7.3 161.745 7.788 161.961 8.188C162.185 8.58 162.477 8.876 162.837 9.076C163.205 9.268 163.605 9.364 164.037 9.364ZM174.544 3.448V10H173.704V8.848C173.512 9.256 173.216 9.568 172.816 9.784C172.416 10 171.968 10.108 171.472 10.108C170.688 10.108 170.048 9.868 169.552 9.388C169.056 8.9 168.808 8.196 168.808 7.276V3.448H169.636V7.18C169.636 7.892 169.812 8.436 170.164 8.812C170.524 9.188 171.012 9.376 171.628 9.376C172.26 9.376 172.764 9.176 173.14 8.776C173.516 8.376 173.704 7.788 173.704 7.012V3.448H174.544ZM178.718 10.096C177.966 10.096 177.35 9.924 176.87 9.58C176.398 9.228 176.134 8.752 176.078 8.152H176.942C176.982 8.52 177.154 8.82 177.458 9.052C177.77 9.276 178.186 9.388 178.706 9.388C179.162 9.388 179.518 9.28 179.774 9.064C180.038 8.848 180.17 8.58 180.17 8.26C180.17 8.036 180.098 7.852 179.954 7.708C179.81 7.564 179.626 7.452 179.402 7.372C179.186 7.284 178.89 7.192 178.514 7.096C178.026 6.968 177.63 6.84 177.326 6.712C177.022 6.584 176.762 6.396 176.546 6.148C176.338 5.892 176.234 5.552 176.234 5.128C176.234 4.808 176.33 4.512 176.522 4.24C176.714 3.968 176.986 3.752 177.338 3.592C177.69 3.432 178.09 3.352 178.538 3.352C179.242 3.352 179.81 3.532 180.242 3.892C180.674 4.244 180.906 4.732 180.938 5.356H180.098C180.074 4.972 179.922 4.664 179.642 4.432C179.37 4.192 178.994 4.072 178.514 4.072C178.09 4.072 177.746 4.172 177.482 4.372C177.218 4.572 177.086 4.82 177.086 5.116C177.086 5.372 177.162 5.584 177.314 5.752C177.474 5.912 177.67 6.04 177.902 6.136C178.134 6.224 178.446 6.324 178.838 6.436C179.31 6.564 179.686 6.688 179.966 6.808C180.246 6.928 180.486 7.104 180.686 7.336C180.886 7.568 180.99 7.876 180.998 8.26C180.998 8.612 180.902 8.928 180.71 9.208C180.518 9.48 180.25 9.696 179.906 9.856C179.562 10.016 179.166 10.096 178.718 10.096ZM61.2646 16.152V15.396H63.3046V24H62.4526V16.152H61.2646ZM65.0085 23.34C66.4805 22.236 67.6165 21.248 68.4165 20.376C69.2245 19.496 69.6285 18.636 69.6285 17.796C69.6285 17.244 69.4885 16.804 69.2085 16.476C68.9365 16.14 68.4885 15.972 67.8645 15.972C67.2565 15.972 66.7845 16.164 66.4485 16.548C66.1205 16.924 65.9365 17.428 65.8965 18.06H65.0805C65.1285 17.172 65.4005 16.484 65.8965 15.996C66.4005 15.5 67.0565 15.252 67.8645 15.252C68.6405 15.252 69.2685 15.472 69.7485 15.912C70.2285 16.344 70.4685 16.96 70.4685 17.76C70.4685 18.728 70.0645 19.668 69.2565 20.58C68.4565 21.484 67.4685 22.368 66.2925 23.232H70.7325V23.94H65.0085V23.34ZM83.3166 17.328C84.0846 17.328 84.7086 17.572 85.1886 18.06C85.6766 18.54 85.9206 19.24 85.9206 20.16V24H85.0926V20.256C85.0926 19.544 84.9206 19 84.5766 18.624C84.2326 18.248 83.7646 18.06 83.1726 18.06C82.5566 18.06 82.0646 18.264 81.6966 18.672C81.3286 19.08 81.1446 19.672 81.1446 20.448V24H80.3166V20.256C80.3166 19.544 80.1446 19 79.8006 18.624C79.4566 18.248 78.9846 18.06 78.3846 18.06C77.7686 18.06 77.2766 18.264 76.9086 18.672C76.5406 19.08 76.3566 19.672 76.3566 20.448V24H75.5166V17.448H76.3566V18.576C76.5646 18.168 76.8606 17.86 77.2446 17.652C77.6286 17.436 78.0566 17.328 78.5286 17.328C79.0966 17.328 79.5926 17.464 80.0166 17.736C80.4486 18.008 80.7606 18.408 80.9526 18.936C81.1286 18.416 81.4286 18.02 81.8526 17.748C82.2846 17.468 82.7726 17.328 83.3166 17.328ZM90.6542 24.096C90.0382 24.096 89.4822 23.96 88.9862 23.688C88.4982 23.408 88.1102 23.016 87.8222 22.512C87.5422 22 87.4022 21.404 87.4022 20.724C87.4022 20.044 87.5462 19.452 87.8342 18.948C88.1222 18.436 88.5142 18.044 89.0102 17.772C89.5062 17.492 90.0622 17.352 90.6782 17.352C91.2942 17.352 91.8502 17.492 92.3462 17.772C92.8502 18.044 93.2422 18.436 93.5222 18.948C93.8102 19.452 93.9542 20.044 93.9542 20.724C93.9542 21.396 93.8102 21.988 93.5222 22.5C93.2342 23.012 92.8382 23.408 92.3342 23.688C91.8302 23.96 91.2702 24.096 90.6542 24.096ZM90.6542 23.364C91.0862 23.364 91.4862 23.268 91.8542 23.076C92.2222 22.876 92.5182 22.58 92.7422 22.188C92.9742 21.788 93.0902 21.3 93.0902 20.724C93.0902 20.148 92.9782 19.664 92.7542 19.272C92.5302 18.872 92.2342 18.576 91.8662 18.384C91.4982 18.184 91.0982 18.084 90.6662 18.084C90.2342 18.084 89.8342 18.184 89.4662 18.384C89.0982 18.576 88.8022 18.872 88.5782 19.272C88.3622 19.664 88.2542 20.148 88.2542 20.724C88.2542 21.3 88.3622 21.788 88.5782 22.188C88.8022 22.58 89.0942 22.876 89.4542 23.076C89.8222 23.268 90.2222 23.364 90.6542 23.364ZM98.5574 17.328C99.3414 17.328 99.9814 17.572 100.477 18.06C100.973 18.54 101.221 19.24 101.221 20.16V24H100.393V20.256C100.393 19.544 100.213 19 99.8534 18.624C99.5014 18.248 99.0174 18.06 98.4014 18.06C97.7694 18.06 97.2654 18.26 96.8894 18.66C96.5134 19.06 96.3254 19.648 96.3254 20.424V24H95.4854V17.448H96.3254V18.564C96.5334 18.164 96.8334 17.86 97.2254 17.652C97.6174 17.436 98.0614 17.328 98.5574 17.328ZM104.171 18.156V22.224C104.171 22.624 104.247 22.9 104.399 23.052C104.551 23.204 104.819 23.28 105.203 23.28H105.971V24H105.071C104.479 24 104.039 23.864 103.751 23.592C103.463 23.312 103.319 22.856 103.319 22.224V18.156H102.407V17.448H103.319V15.804H104.171V17.448H105.971V18.156H104.171ZM110.476 17.328C110.972 17.328 111.416 17.432 111.808 17.64C112.208 17.848 112.52 18.168 112.744 18.6C112.976 19.024 113.092 19.544 113.092 20.16V24H112.264V20.256C112.264 19.544 112.084 19 111.724 18.624C111.372 18.248 110.888 18.06 110.272 18.06C109.64 18.06 109.136 18.26 108.76 18.66C108.384 19.06 108.196 19.648 108.196 20.424V24H107.356V15.12H108.196V18.564C108.404 18.172 108.708 17.868 109.108 17.652C109.516 17.436 109.972 17.328 110.476 17.328ZM117.206 24.096C116.454 24.096 115.838 23.924 115.358 23.58C114.886 23.228 114.622 22.752 114.566 22.152H115.43C115.47 22.52 115.642 22.82 115.946 23.052C116.258 23.276 116.674 23.388 117.194 23.388C117.65 23.388 118.006 23.28 118.262 23.064C118.526 22.848 118.658 22.58 118.658 22.26C118.658 22.036 118.586 21.852 118.442 21.708C118.298 21.564 118.114 21.452 117.89 21.372C117.674 21.284 117.378 21.192 117.002 21.096C116.514 20.968 116.118 20.84 115.814 20.712C115.51 20.584 115.25 20.396 115.034 20.148C114.826 19.892 114.722 19.552 114.722 19.128C114.722 18.808 114.818 18.512 115.01 18.24C115.202 17.968 115.474 17.752 115.826 17.592C116.178 17.432 116.578 17.352 117.026 17.352C117.73 17.352 118.298 17.532 118.73 17.892C119.162 18.244 119.394 18.732 119.426 19.356H118.586C118.562 18.972 118.41 18.664 118.13 18.432C117.858 18.192 117.482 18.072 117.002 18.072C116.578 18.072 116.234 18.172 115.97 18.372C115.706 18.572 115.574 18.82 115.574 19.116C115.574 19.372 115.65 19.584 115.802 19.752C115.962 19.912 116.158 20.04 116.39 20.136C116.622 20.224 116.934 20.324 117.326 20.436C117.798 20.564 118.174 20.688 118.454 20.808C118.734 20.928 118.974 21.104 119.174 21.336C119.374 21.568 119.478 21.876 119.486 22.26C119.486 22.612 119.39 22.928 119.198 23.208C119.006 23.48 118.738 23.696 118.394 23.856C118.05 24.016 117.654 24.096 117.206 24.096Z" fill="white"/>
</svg>
