<svg width="222" height="186" viewBox="0 0 222 116" fill="none" xmlns="http://www.w3.org/2000/svg">
  <g transform="translate(-30, 0)">
    <path fill-rule="evenodd" clip-rule="evenodd" d="M222 176C222 181.523 217.523 186 212 186L46.2812 186C40.7584 186 36.2812 181.523 36.2812 176L36.2812 128.25C16.7097 128.25 0.843745 112.384 0.843746 92.8125C0.843747 73.2409 16.7097 57.375 36.2812 57.375L36.2812 10.2812C36.2812 4.7584 40.7584 0.281244 46.2812 0.281244L87.3222 0.281244C90.4728 20.36 107.849 35.7186 128.812 35.7186C149.776 35.7186 167.152 20.36 170.303 0.281248L212 0.28125C217.523 0.28125 222 4.7584 222 10.2812L222 176Z" fill="#9747FF"/>
  </g>
</svg>