<svg width="222" height="186" viewBox="0 0 222 186" fill="none" xmlns="http://www.w3.org/2000/svg">
<path fill-rule="evenodd" clip-rule="evenodd" d="M-7.68091e-06 10C-7.92232e-06 4.47716 4.47715 -1.95703e-07 9.99999 -4.37114e-07L175.719 -7.68091e-06C181.242 -7.92232e-06 185.719 4.47715 185.719 9.99999L185.719 57.75C205.29 57.75 221.156 73.6159 221.156 93.1875C221.156 112.759 205.29 128.625 185.719 128.625L185.719 175.719C185.719 181.242 181.242 185.719 175.719 185.719L134.678 185.719C131.527 165.64 114.151 150.281 93.1875 150.281C72.224 150.281 54.8478 165.64 51.6972 185.719L10 185.719C4.47716 185.719 1.84633e-06 181.242 1.53906e-06 175.719L-7.68091e-06 10Z" fill="#1E1E1E"/>
</svg>
