<svg width="222" height="186" viewBox="0 0 222 186" fill="none" xmlns="http://www.w3.org/2000/svg">
<path fill-rule="evenodd" clip-rule="evenodd" d="M176 0C181.523 0 186 4.47715 186 10V175.719C186 181.242 181.523 185.719 176 185.719H128.25C128.25 205.29 112.384 221.156 92.8125 221.156C73.2409 221.156 57.375 205.29 57.375 185.719H10.2813C4.75841 185.719 0.281252 181.242 0.281252 175.719L0.28125 134.678C20.3601 131.527 35.7188 114.151 35.7188 93.1877C35.7188 72.2242 20.3601 54.8479 0.28125 51.6974V10C0.28125 4.47716 4.7584 2.16128e-06 10.2812 2.09542e-06L176 0Z" fill="#C358FF"/>
</svg>