<svg width="222" height="186" viewBox="0 -34.15626 222 186" fill="none" xmlns="http://www.w3.org/2000/svg">
<g transform="translate(0, -35)">
<path fill-rule="evenodd" clip-rule="evenodd" d="M10 222C4.47716 222 3.91405e-07 217.523 8.74228e-07 212L1.53618e-05 46.2812C1.58446e-05 40.7584 4.47717 36.2812 10 36.2812L57.75 36.2812C57.75 16.7096 73.6159 0.84374 93.1875 0.843742C112.759 0.843744 128.625 16.7097 128.625 36.2812L175.719 36.2812C181.242 36.2812 185.719 40.7584 185.719 46.2812L185.719 87.322C165.64 90.4725 150.281 107.849 150.281 128.812C150.281 149.776 165.64 167.152 185.719 170.303L185.719 212C185.719 217.523 181.242 222 175.719 222L10 222Z" fill="#E6E6E6"/>
</g>
</svg>